# xmcd
#
# Track frame offsets: 
#        150
#        25068
#        62344
#        88444
#        127594
#        147694
#        184370
#        213546
#        240846
#
# Disc length: 3692 seconds
#
# Revision: 2
# Processed by: cddbd v1.5.2PL0 Copyright (c) Steve Scherf et al.
# Submitted via: ExactAudioCopyFreeDBPlugin 1.0
#
DISCID=7b0e6a09
DTITLE=Tonu Naissoo Trio - With A Song In My Life
DYEAR=2005
DGENRE=Jazz
TTITLE0=Isn't It Romantic
TTITLE1=My Favorite Things
TTITLE2=You Are Too Beautiful
TTITLE3=With A Song In My Life
TTITLE4=Spring Is Here
TTITLE5=Things Ain't What They Used To Be
TTITLE6=Close Your Eyes
TTITLE7=Con Alma
TTITLE8=In The wee Small Hours Of The Morning
EXTD=YEAR: 2005
EXTT0=
EXTT1=
EXTT2=
EXTT3=
EXTT4=
EXTT5=
EXTT6=
EXTT7=
EXTT8=
PLAYORDER=
